<svg width="45" height="45" viewBox="0 0 45 45" fill="none" xmlns="http://www.w3.org/2000/svg">
<g filter="url(#filter0_d)">
<rect x="7" y="5" width="30.5409" height="30.5409" rx="10" fill="#2F2F2F"/>
</g>
<path d="M18.1388 11.6387C17.4867 11.6387 16.9585 12.1904 16.9585 12.8717V27.6679C16.9585 28.3491 17.4867 28.9009 18.1388 28.9009H26.4011C27.0532 28.9009 27.5814 28.3491 27.5814 27.6679V25.2019H26.4011V27.6679H18.1388V12.8717H19.9093L20.1537 13.127C20.375 13.3582 20.6754 13.4882 20.9882 13.4882H23.5517C23.8645 13.4882 24.1649 13.3582 24.3862 13.127L24.6306 12.8717H26.4011V14.7212H27.5814V12.8717C27.5814 12.1904 27.0532 11.6387 26.4011 11.6387L18.1388 11.6387ZM21.3847 12.2552H22.565C22.7279 12.2552 22.8601 12.3933 22.8601 12.5634C22.8601 12.7336 22.7279 12.8717 22.565 12.8717H21.3847C21.2218 12.8717 21.0896 12.7336 21.0896 12.5634C21.0896 12.3933 21.2218 12.2552 21.3847 12.2552ZM23.7454 12.2552C23.9082 12.2552 24.0404 12.3933 24.0404 12.5634C24.0404 12.7336 23.9082 12.8717 23.7454 12.8717C23.5825 12.8717 23.4503 12.7336 23.4503 12.5634C23.4503 12.3933 23.5825 12.2552 23.7454 12.2552Z" fill="#E0E9FF"/>
<path d="M23.036 16.2871C22.2462 16.2871 21.606 16.9312 21.606 17.7256V22.0412C21.606 22.8356 22.2462 23.4797 23.036 23.4797H23.9395C23.8711 23.902 23.6725 24.3288 23.1526 24.5698C23.0825 24.596 23.036 24.6632 23.036 24.7384C23.036 24.8377 23.116 24.9182 23.2147 24.9182C23.2325 24.9183 23.2501 24.9157 23.2671 24.9105C24.1567 24.8908 25.1155 24.3702 25.6348 23.4797H29.471C30.2607 23.4797 30.901 22.8356 30.901 22.0412V17.7256C30.901 16.9312 30.2607 16.2871 29.471 16.2871L23.036 16.2871ZM28.756 17.366C29.151 17.366 29.471 17.6879 29.471 18.0853C29.471 18.4827 29.151 18.8045 28.756 18.8045C28.361 18.8045 28.041 18.4827 28.041 18.0853C28.041 17.6879 28.361 17.366 28.756 17.366ZM25.181 19.1649C25.4024 19.1649 25.6237 19.2499 25.7926 19.4198L26.611 20.243L26.6166 20.2374L27.0348 20.6589C27.1857 20.8106 27.4293 20.8092 27.5802 20.6575C27.731 20.5057 27.731 20.2589 27.5802 20.1068L27.1724 19.6966C27.5109 19.4455 27.9887 19.4711 28.2952 19.7795L29.471 20.9623V22.0412H23.036V20.9623L24.5693 19.4198C24.7382 19.2499 24.9596 19.1649 25.181 19.1649L25.181 19.1649Z" fill="#E0E9FF"/>
<defs>
<filter id="filter0_d" x="0" y="0" width="44.5409" height="44.5409" filterUnits="userSpaceOnUse" color-interpolation-filters="sRGB">
<feFlood flood-opacity="0" result="BackgroundImageFix"/>
<feColorMatrix in="SourceAlpha" type="matrix" values="0 0 0 0 0 0 0 0 0 0 0 0 0 0 0 0 0 0 127 0"/>
<feOffset dy="2"/>
<feGaussianBlur stdDeviation="3.5"/>
<feColorMatrix type="matrix" values="0 0 0 0 0 0 0 0 0 0 0 0 0 0 0 0 0 0 0.1 0"/>
<feBlend mode="normal" in2="BackgroundImageFix" result="effect1_dropShadow"/>
<feBlend mode="normal" in="SourceGraphic" in2="effect1_dropShadow" result="shape"/>
</filter>
</defs>
</svg>
