<svg width="45" height="45" viewBox="0 0 45 45" fill="none" xmlns="http://www.w3.org/2000/svg">
<g filter="url(#filter0_d)">
<rect x="7" y="5" width="30.5409" height="30.5409" rx="10" fill="#2F2F2F"/>
</g>
<path d="M19.6434 11.6387C18.6088 11.6387 17.7671 12.4804 17.7671 13.515C17.7671 14.5496 18.6088 15.3913 19.6434 15.3913C19.7961 15.3913 19.9424 15.368 20.0847 15.3334L20.3976 15.9989C19.052 16.7785 18.1424 18.2306 18.1424 19.8945C18.1424 20.324 18.2069 20.738 18.3197 21.1317L17.092 21.5114C16.758 20.9919 16.1777 20.6451 15.5155 20.6451C14.4809 20.6451 13.6392 21.4868 13.6392 22.5214C13.6392 23.556 14.4809 24.3977 15.5155 24.3977C16.5501 24.3977 17.3918 23.556 17.3918 22.5214C17.3918 22.4163 17.3814 22.314 17.3647 22.2136L18.5887 21.8354C19.1618 23.0283 20.2422 23.9291 21.5513 24.2577L21.4391 25.1519C20.4421 25.1947 19.6434 26.0172 19.6434 27.0246C19.6434 28.0592 20.4851 28.9009 21.5198 28.9009C22.5544 28.9009 23.3961 28.0592 23.3961 27.0246C23.3961 26.2234 22.8891 25.5428 22.1809 25.2743L22.293 24.3794C22.4098 24.3885 22.5265 24.3977 22.6455 24.3977C23.9035 24.3977 25.0409 23.8777 25.8588 23.0433L27.3694 24.2841C27.2331 24.544 27.1487 24.8351 27.1487 25.1483C27.1487 26.1829 27.9905 27.0246 29.0251 27.0246C30.0597 27.0246 30.9014 26.1829 30.9014 25.1483C30.9014 24.1136 30.0597 23.2719 29.0251 23.2719C28.5752 23.2719 28.1679 23.438 27.8443 23.7029L26.3374 22.4657C26.8471 21.7359 27.1487 20.8503 27.1487 19.8945C27.1487 18.7879 26.7455 17.7748 26.0808 16.9899L27.2418 15.8289C27.5385 16.0255 27.8928 16.1419 28.2745 16.1419C29.3092 16.1419 30.1509 15.3001 30.1509 14.2655C30.1509 13.2309 29.3092 12.3892 28.2745 12.3892C27.2399 12.3892 26.3982 13.2309 26.3982 14.2655C26.3982 14.6473 26.5146 15.0016 26.7112 15.2983L25.5502 16.4592C24.7653 15.7946 23.7522 15.3913 22.6455 15.3913C22.0932 15.3913 21.5664 15.4966 21.0771 15.6794L20.7626 15.0117C21.2193 14.6691 21.5198 14.1286 21.5198 13.515C21.5198 12.4804 20.678 11.6387 19.6434 11.6387V11.6387ZM22.6455 17.2677C22.993 17.2677 23.2777 17.3625 23.3726 17.5528C23.9472 17.6248 24.1429 18.1233 24.1466 18.5811C24.1496 18.9293 24.1211 19.2341 24.0528 19.4254C24.1158 19.457 24.1781 19.6108 24.1466 19.8007C24.0836 20.149 23.8663 20.2698 23.7713 20.2698C23.7398 20.5865 23.5225 21.0507 23.3961 21.1141V21.7709C23.5987 22.2576 24.5725 22.254 25.1661 22.6687C24.4997 23.2744 23.6171 23.6472 22.6455 23.6472C21.674 23.6472 20.7914 23.2744 20.125 22.6687C20.7186 22.254 21.6924 22.2576 21.895 21.7709V21.1141C21.7686 21.0507 21.5513 20.5865 21.5198 20.2698C21.4248 20.2698 21.176 20.149 21.1445 19.8007C21.113 19.6108 21.1753 19.457 21.2383 19.4254C21.1629 19.1455 21.1464 18.8761 21.1445 18.628C21.1389 17.8384 21.6102 17.2677 22.6455 17.2677Z" fill="#E0E9FF"/>
<defs>
<filter id="filter0_d" x="0" y="0" width="44.5409" height="44.5409" filterUnits="userSpaceOnUse" color-interpolation-filters="sRGB">
<feFlood flood-opacity="0" result="BackgroundImageFix"/>
<feColorMatrix in="SourceAlpha" type="matrix" values="0 0 0 0 0 0 0 0 0 0 0 0 0 0 0 0 0 0 127 0"/>
<feOffset dy="2"/>
<feGaussianBlur stdDeviation="3.5"/>
<feColorMatrix type="matrix" values="0 0 0 0 0 0 0 0 0 0 0 0 0 0 0 0 0 0 0.1 0"/>
<feBlend mode="normal" in2="BackgroundImageFix" result="effect1_dropShadow"/>
<feBlend mode="normal" in="SourceGraphic" in2="effect1_dropShadow" result="shape"/>
</filter>
</defs>
</svg>
