<svg width="111" height="54" viewBox="0 0 111 54" fill="none" xmlns="http://www.w3.org/2000/svg">
<path d="M16.5528 49.7232C16.5528 50.5092 15.9154 51.1465 15.1294 51.1465C14.3434 51.1465 13.7061 50.5092 13.7061 49.7232C13.7061 48.9372 14.3434 48.2998 15.1294 48.2998C15.9154 48.2998 16.5528 48.9372 16.5528 49.7232Z" fill="#E0E9FF"/>
<path d="M26.7671 9.54297H3.49121V43.4093H26.7671V9.54297Z" fill="#2F2F2F"/>
<path d="M3.72414 0C1.66841 0.00227303 0.00227303 1.66841 0 3.72414V50.2759C0.00227303 52.3316 1.66841 53.9977 3.72414 54H26.5345C28.5902 53.9977 30.2563 52.3316 30.2586 50.2759V3.72414C30.2563 1.66841 28.5902 0.00227303 26.5345 0H3.72414ZM9.89224 3.02586H20.3664C20.8805 3.02586 21.2974 3.44274 21.2974 3.9569C21.2974 4.47106 20.8805 4.88793 20.3664 4.88793H9.89224C9.37808 4.88793 8.96121 4.47106 8.96121 3.9569C8.96121 3.44274 9.37808 3.02586 9.89224 3.02586ZM15.1293 53.0085C13.315 53.0085 11.8439 51.5374 11.8439 49.7231C11.8439 47.9087 13.315 46.4376 15.1293 46.4376C16.9436 46.4376 18.4148 47.9087 18.4148 49.7231C18.4129 51.5369 16.9432 53.0067 15.1293 53.0085ZM28.6293 8.61207V44.3405C28.6293 44.8547 28.2124 45.2716 27.6983 45.2716H2.56034C2.04618 45.2716 1.62931 44.8547 1.62931 44.3405V8.61207C1.62931 8.09791 2.04618 7.68103 2.56034 7.68103H27.6983C28.2124 7.68103 28.6293 8.09791 28.6293 8.61207Z" fill="#2F2F2F"/>
<path d="M56.5528 49.7232C56.5528 50.5092 55.9154 51.1465 55.1294 51.1465C54.3434 51.1465 53.7061 50.5092 53.7061 49.7232C53.7061 48.9372 54.3434 48.2998 55.1294 48.2998C55.9154 48.2998 56.5528 48.9372 56.5528 49.7232Z" fill="#E0E9FF"/>
<path d="M66.7671 9.54297H43.4912V43.4093H66.7671V9.54297Z" fill="#ED1C24"/>
<path d="M62.8372 23.638C62.3753 23.3387 61.8523 23 60.8484 23C59.8445 23 59.3215 23.3392 58.8596 23.638C58.4309 23.9158 58.0609 24.1557 57.2818 24.1557C56.5027 24.1557 56.1327 23.9158 55.7046 23.6385C55.3512 23.4094 54.9606 23.1574 54.3467 23.052C54.1591 23.0197 53.9508 23.0005 53.7157 23.0005C52.7118 23.0005 52.1888 23.3396 51.7274 23.6385C51.2988 23.9163 50.9288 24.1557 50.1497 24.1557C49.3705 24.1557 49.0005 23.9158 48.5724 23.6385C48.1794 23.3837 47.7415 23.1003 47 23.0215V23.7303C47.5108 23.7997 47.8172 23.9983 48.1613 24.2213C48.6227 24.5206 49.1462 24.8593 50.1501 24.8593C51.1541 24.8593 51.6771 24.5201 52.139 24.2213C52.5671 23.9435 52.9371 23.7041 53.7162 23.7041C54.4953 23.7041 54.8653 23.9439 55.294 24.2213C55.3321 24.2461 55.3712 24.2714 55.4108 24.2967C55.8458 24.5745 56.362 24.8598 57.2828 24.8598C58.2867 24.8598 58.8097 24.5206 59.2716 24.2217C59.7003 23.9439 60.0703 23.7041 60.8494 23.7041C61.6285 23.7041 61.9985 23.9439 62.4271 24.2213C62.8206 24.4761 63.2585 24.76 64 24.8382V24.1295C63.4878 24.0597 63.1813 23.861 62.8372 23.638Z" fill="#2F2F2F"/>
<path d="M60.8484 27.7651C59.8445 27.7651 59.321 28.1043 58.8596 28.4032C58.6636 28.5301 58.4788 28.6491 58.2623 28.7409C58.0062 28.8496 57.7041 28.9204 57.2818 28.9204C56.5027 28.9204 56.1327 28.6805 55.7046 28.4032C55.2427 28.1038 54.7197 27.7651 53.7157 27.7651C52.7118 27.7651 52.1888 28.1043 51.7269 28.4032C51.2988 28.681 50.9288 28.9204 50.1497 28.9204C49.3705 28.9204 49.0005 28.6805 48.5724 28.4032C48.1794 28.1483 47.7415 27.8649 47 27.7862V28.495C47.5108 28.5643 47.8172 28.763 48.1613 28.9859C48.6227 29.2848 49.1462 29.624 50.1497 29.624C51.1536 29.624 51.6766 29.2848 52.138 28.9859C52.5666 28.7081 52.9361 28.4683 53.7157 28.4683C54.4948 28.4683 54.8648 28.7081 55.2935 28.9859C55.7549 29.2848 56.2784 29.624 57.2823 29.624C57.9324 29.624 58.3801 29.4816 58.7408 29.3003C58.9373 29.2014 59.1079 29.0913 59.2706 28.9859C59.6993 28.7081 60.0693 28.4683 60.8484 28.4683C61.6275 28.4683 61.9975 28.7081 62.4262 28.9859C62.8196 29.2408 63.2576 29.5242 63.999 29.6029V28.8941C63.4878 28.8248 63.1813 28.6262 62.8372 28.4032C62.3758 28.1038 61.8528 27.7651 60.8484 27.7651Z" fill="#2F2F2F"/>
<path d="M60.8484 25.3156C59.8445 25.3156 59.321 25.6547 58.8596 25.9536C58.6636 26.0806 58.4788 26.1996 58.2623 26.2914C58.0062 26.4001 57.7041 26.4708 57.2818 26.4708C56.5027 26.4708 56.1327 26.231 55.7046 25.9536C55.2427 25.6543 54.7197 25.3156 53.7157 25.3156C52.7118 25.3156 52.1888 25.6547 51.7269 25.9536C51.2988 26.2314 50.9288 26.4708 50.1497 26.4708C49.3705 26.4708 49.0005 26.231 48.5724 25.9536C48.1794 25.6988 47.7415 25.4154 47 25.3367V26.0454C47.5108 26.1148 47.8172 26.3134 48.1613 26.5364C48.6227 26.8353 49.1462 27.1744 50.1497 27.1744C51.1536 27.1744 51.6766 26.8353 52.138 26.5364C52.5666 26.2586 52.9361 26.0187 53.7157 26.0187C54.4948 26.0187 54.8648 26.2586 55.2935 26.5364C55.7549 26.8353 56.2784 27.1744 57.2823 27.1744C57.9324 27.1744 58.3801 27.032 58.7408 26.8507C58.9373 26.7519 59.1079 26.6418 59.2706 26.5364C59.6993 26.2586 60.0693 26.0187 60.8484 26.0187C61.6275 26.0187 61.9975 26.2586 62.4262 26.5364C62.8196 26.7912 63.2576 27.0746 63.999 27.1533V26.4446C63.4878 26.3752 63.1813 26.1766 62.8372 25.9536C62.3758 25.6543 61.8528 25.3156 60.8484 25.3156Z" fill="#2F2F2F"/>
<path d="M60.8484 30.1412C60.6959 30.1412 60.5551 30.1496 60.4237 30.1641C59.6881 30.2442 59.2511 30.5258 58.8596 30.7792C58.4314 31.057 58.0614 31.2964 57.2818 31.2964C56.5027 31.2964 56.1327 31.0565 55.7046 30.7792C55.2427 30.4799 54.7197 30.1412 53.7157 30.1412C52.7118 30.1412 52.1888 30.4803 51.7269 30.7792C51.2988 31.057 50.9288 31.2964 50.1497 31.2964C49.3705 31.2964 49.0005 31.0565 48.5724 30.7792C48.1794 30.5244 47.7415 30.2409 47 30.1622V30.871C47.5108 30.9404 47.8172 31.139 48.1613 31.362C48.6227 31.6608 49.1462 32 50.1497 32C51.1536 32 51.6766 31.6608 52.138 31.362C52.5666 31.0842 52.9361 30.8443 53.7157 30.8443C54.4948 30.8443 54.8648 31.0842 55.2935 31.362C55.7549 31.6608 56.2784 32 57.2823 32C58.2862 32 58.8092 31.6613 59.2706 31.362C59.6993 31.0842 60.0693 30.8443 60.8484 30.8443C60.9041 30.8443 60.9569 30.8457 61.0082 30.8481C61.6798 30.879 62.0278 31.1038 62.4257 31.3615C62.8191 31.6163 63.2571 31.8997 63.9985 31.9785V31.2701C63.4873 31.2008 63.1808 31.0022 62.8367 30.7792C62.3758 30.4803 61.8528 30.1412 60.8484 30.1412Z" fill="#2F2F2F"/>
<path d="M43.7241 0C41.6684 0.00227303 40.0023 1.66841 40 3.72414V50.2759C40.0023 52.3316 41.6684 53.9977 43.7241 54H66.5345C68.5902 53.9977 70.2563 52.3316 70.2586 50.2759V3.72414C70.2563 1.66841 68.5902 0.00227303 66.5345 0H43.7241ZM49.8922 3.02586H60.3664C60.8805 3.02586 61.2974 3.44274 61.2974 3.9569C61.2974 4.47106 60.8805 4.88793 60.3664 4.88793H49.8922C49.3781 4.88793 48.9612 4.47106 48.9612 3.9569C48.9612 3.44274 49.3781 3.02586 49.8922 3.02586ZM55.1293 53.0085C53.315 53.0085 51.8439 51.5374 51.8439 49.7231C51.8439 47.9087 53.315 46.4376 55.1293 46.4376C56.9436 46.4376 58.4148 47.9087 58.4148 49.7231C58.4129 51.5369 56.9432 53.0067 55.1293 53.0085ZM68.6293 8.61207V44.3405C68.6293 44.8547 68.2124 45.2716 67.6983 45.2716H42.5603C42.0462 45.2716 41.6293 44.8547 41.6293 44.3405V8.61207C41.6293 8.09791 42.0462 7.68103 42.5603 7.68103H67.6983C68.2124 7.68103 68.6293 8.09791 68.6293 8.61207Z" fill="#2F2F2F"/>
<path d="M96.5528 49.7232C96.5528 50.5092 95.9154 51.1465 95.1294 51.1465C94.3434 51.1465 93.7061 50.5092 93.7061 49.7232C93.7061 48.9372 94.3434 48.2998 95.1294 48.2998C95.9154 48.2998 96.5528 48.9372 96.5528 49.7232Z" fill="#E0E9FF"/>
<path d="M106.767 9.54297H83.4912V43.4093H106.767V9.54297Z" fill="#FFC657"/>
<path d="M102.837 23.638C102.375 23.3387 101.852 23 100.848 23C99.8445 23 99.3215 23.3392 98.8596 23.638C98.4309 23.9158 98.0609 24.1557 97.2818 24.1557C96.5027 24.1557 96.1327 23.9158 95.7046 23.6385C95.3512 23.4094 94.9606 23.1574 94.3467 23.052C94.1591 23.0197 93.9508 23.0005 93.7157 23.0005C92.7118 23.0005 92.1888 23.3396 91.7274 23.6385C91.2988 23.9163 90.9288 24.1557 90.1497 24.1557C89.3705 24.1557 89.0005 23.9158 88.5724 23.6385C88.1794 23.3837 87.7415 23.1003 87 23.0215V23.7303C87.5108 23.7997 87.8172 23.9983 88.1613 24.2213C88.6227 24.5206 89.1462 24.8593 90.1501 24.8593C91.1541 24.8593 91.6771 24.5201 92.139 24.2213C92.5671 23.9435 92.9371 23.7041 93.7162 23.7041C94.4953 23.7041 94.8653 23.9439 95.294 24.2213C95.3321 24.2461 95.3712 24.2714 95.4108 24.2967C95.8458 24.5745 96.362 24.8598 97.2828 24.8598C98.2867 24.8598 98.8097 24.5206 99.2716 24.2217C99.7003 23.9439 100.07 23.7041 100.849 23.7041C101.628 23.7041 101.998 23.9439 102.427 24.2213C102.821 24.4761 103.259 24.76 104 24.8382V24.1295C103.488 24.0597 103.181 23.861 102.837 23.638Z" fill="#2F2F2F"/>
<path d="M100.848 27.7651C99.8445 27.7651 99.321 28.1043 98.8596 28.4032C98.6636 28.5301 98.4788 28.6491 98.2623 28.7409C98.0062 28.8496 97.7041 28.9204 97.2818 28.9204C96.5027 28.9204 96.1327 28.6805 95.7046 28.4032C95.2427 28.1038 94.7197 27.7651 93.7157 27.7651C92.7118 27.7651 92.1888 28.1043 91.7269 28.4032C91.2988 28.681 90.9288 28.9204 90.1497 28.9204C89.3705 28.9204 89.0005 28.6805 88.5724 28.4032C88.1794 28.1483 87.7415 27.8649 87 27.7862V28.495C87.5108 28.5643 87.8172 28.763 88.1613 28.9859C88.6227 29.2848 89.1462 29.624 90.1497 29.624C91.1536 29.624 91.6766 29.2848 92.138 28.9859C92.5666 28.7081 92.9361 28.4683 93.7157 28.4683C94.4948 28.4683 94.8648 28.7081 95.2935 28.9859C95.7549 29.2848 96.2784 29.624 97.2823 29.624C97.9324 29.624 98.3801 29.4816 98.7408 29.3003C98.9373 29.2014 99.1079 29.0913 99.2706 28.9859C99.6993 28.7081 100.069 28.4683 100.848 28.4683C101.627 28.4683 101.998 28.7081 102.426 28.9859C102.82 29.2408 103.258 29.5242 103.999 29.6029V28.8941C103.488 28.8248 103.181 28.6262 102.837 28.4032C102.376 28.1038 101.853 27.7651 100.848 27.7651Z" fill="#2F2F2F"/>
<path d="M100.848 25.3156C99.8445 25.3156 99.321 25.6547 98.8596 25.9536C98.6636 26.0806 98.4788 26.1996 98.2623 26.2914C98.0062 26.4001 97.7041 26.4708 97.2818 26.4708C96.5027 26.4708 96.1327 26.231 95.7046 25.9536C95.2427 25.6543 94.7197 25.3156 93.7157 25.3156C92.7118 25.3156 92.1888 25.6547 91.7269 25.9536C91.2988 26.2314 90.9288 26.4708 90.1497 26.4708C89.3705 26.4708 89.0005 26.231 88.5724 25.9536C88.1794 25.6988 87.7415 25.4154 87 25.3367V26.0454C87.5108 26.1148 87.8172 26.3134 88.1613 26.5364C88.6227 26.8353 89.1462 27.1744 90.1497 27.1744C91.1536 27.1744 91.6766 26.8353 92.138 26.5364C92.5666 26.2586 92.9361 26.0187 93.7157 26.0187C94.4948 26.0187 94.8648 26.2586 95.2935 26.5364C95.7549 26.8353 96.2784 27.1744 97.2823 27.1744C97.9324 27.1744 98.3801 27.032 98.7408 26.8507C98.9373 26.7519 99.1079 26.6418 99.2706 26.5364C99.6993 26.2586 100.069 26.0187 100.848 26.0187C101.627 26.0187 101.998 26.2586 102.426 26.5364C102.82 26.7912 103.258 27.0746 103.999 27.1533V26.4446C103.488 26.3752 103.181 26.1766 102.837 25.9536C102.376 25.6543 101.853 25.3156 100.848 25.3156Z" fill="#2F2F2F"/>
<path d="M100.848 30.1412C100.696 30.1412 100.555 30.1496 100.424 30.1641C99.6881 30.2442 99.2511 30.5258 98.8596 30.7792C98.4314 31.057 98.0614 31.2964 97.2818 31.2964C96.5027 31.2964 96.1327 31.0565 95.7046 30.7792C95.2427 30.4799 94.7197 30.1412 93.7157 30.1412C92.7118 30.1412 92.1888 30.4803 91.7269 30.7792C91.2988 31.057 90.9288 31.2964 90.1497 31.2964C89.3705 31.2964 89.0005 31.0565 88.5724 30.7792C88.1794 30.5244 87.7415 30.2409 87 30.1622V30.871C87.5108 30.9404 87.8172 31.139 88.1613 31.362C88.6227 31.6608 89.1462 32 90.1497 32C91.1536 32 91.6766 31.6608 92.138 31.362C92.5666 31.0842 92.9361 30.8443 93.7157 30.8443C94.4948 30.8443 94.8648 31.0842 95.2935 31.362C95.7549 31.6608 96.2784 32 97.2823 32C98.2862 32 98.8092 31.6613 99.2706 31.362C99.6993 31.0842 100.069 30.8443 100.848 30.8443C100.904 30.8443 100.957 30.8457 101.008 30.8481C101.68 30.879 102.028 31.1038 102.426 31.3615C102.819 31.6163 103.257 31.8997 103.999 31.9785V31.2701C103.487 31.2008 103.181 31.0022 102.837 30.7792C102.376 30.4803 101.853 30.1412 100.848 30.1412Z" fill="#2F2F2F"/>
<path d="M83.7241 0C81.6684 0.00227303 80.0023 1.66841 80 3.72414V50.2759C80.0023 52.3316 81.6684 53.9977 83.7241 54H106.534C108.59 53.9977 110.256 52.3316 110.259 50.2759V3.72414C110.256 1.66841 108.59 0.00227303 106.534 0H83.7241ZM89.8922 3.02586H100.366C100.881 3.02586 101.297 3.44274 101.297 3.9569C101.297 4.47106 100.881 4.88793 100.366 4.88793H89.8922C89.3781 4.88793 88.9612 4.47106 88.9612 3.9569C88.9612 3.44274 89.3781 3.02586 89.8922 3.02586ZM95.1293 53.0085C93.315 53.0085 91.8439 51.5374 91.8439 49.7231C91.8439 47.9087 93.315 46.4376 95.1293 46.4376C96.9436 46.4376 98.4148 47.9087 98.4148 49.7231C98.4129 51.5369 96.9432 53.0067 95.1293 53.0085ZM108.629 8.61207V44.3405C108.629 44.8547 108.212 45.2716 107.698 45.2716H82.5603C82.0462 45.2716 81.6293 44.8547 81.6293 44.3405V8.61207C81.6293 8.09791 82.0462 7.68103 82.5603 7.68103H107.698C108.212 7.68103 108.629 8.09791 108.629 8.61207Z" fill="#2F2F2F"/>
<path d="M22.8372 22.638C22.3753 22.3387 21.8523 22 20.8484 22C19.8445 22 19.3215 22.3392 18.8596 22.638C18.4309 22.9158 18.0609 23.1557 17.2818 23.1557C16.5027 23.1557 16.1327 22.9158 15.7046 22.6385C15.3512 22.4094 14.9606 22.1574 14.3467 22.052C14.1591 22.0197 13.9508 22.0005 13.7157 22.0005C12.7118 22.0005 12.1888 22.3396 11.7274 22.6385C11.2988 22.9163 10.9288 23.1557 10.1497 23.1557C9.37055 23.1557 9.00055 22.9158 8.57238 22.6385C8.17941 22.3837 7.74147 22.1003 7 22.0215V22.7303C7.51077 22.7997 7.81723 22.9983 8.16132 23.2213C8.62273 23.5206 9.1462 23.8593 10.1501 23.8593C11.1541 23.8593 11.6771 23.5201 12.139 23.2213C12.5671 22.9435 12.9371 22.7041 13.7162 22.7041C14.4953 22.7041 14.8653 22.9439 15.294 23.2213C15.3321 23.2461 15.3712 23.2714 15.4108 23.2967C15.8458 23.5745 16.362 23.8598 17.2828 23.8598C18.2867 23.8598 18.8097 23.5206 19.2716 23.2217C19.7003 22.9439 20.0703 22.7041 20.8494 22.7041C21.6285 22.7041 21.9985 22.9439 22.4271 23.2213C22.8206 23.4761 23.2585 23.76 24 23.8382V23.1295C23.4878 23.0597 23.1813 22.861 22.8372 22.638Z" fill="#E0E9FF"/>
<path d="M20.8484 26.7651C19.8445 26.7651 19.321 27.1043 18.8596 27.4032C18.6636 27.5301 18.4788 27.6491 18.2623 27.7409C18.0062 27.8496 17.7041 27.9204 17.2818 27.9204C16.5027 27.9204 16.1327 27.6805 15.7046 27.4032C15.2427 27.1038 14.7197 26.7651 13.7157 26.7651C12.7118 26.7651 12.1888 27.1043 11.7269 27.4032C11.2988 27.681 10.9288 27.9204 10.1497 27.9204C9.37055 27.9204 9.00055 27.6805 8.57238 27.4032C8.17941 27.1483 7.74147 26.8649 7 26.7862V27.495C7.51077 27.5643 7.81723 27.763 8.16132 27.9859C8.62273 28.2848 9.1462 28.624 10.1497 28.624C11.1536 28.624 11.6766 28.2848 12.138 27.9859C12.5666 27.7081 12.9361 27.4683 13.7157 27.4683C14.4948 27.4683 14.8648 27.7081 15.2935 27.9859C15.7549 28.2848 16.2784 28.624 17.2823 28.624C17.9324 28.624 18.3801 28.4816 18.7408 28.3003C18.9373 28.2014 19.1079 28.0913 19.2706 27.9859C19.6993 27.7081 20.0693 27.4683 20.8484 27.4683C21.6275 27.4683 21.9975 27.7081 22.4262 27.9859C22.8196 28.2408 23.2576 28.5242 23.999 28.6029V27.8941C23.4878 27.8248 23.1813 27.6262 22.8372 27.4032C22.3758 27.1038 21.8528 26.7651 20.8484 26.7651Z" fill="#E0E9FF"/>
<path d="M20.8484 24.3156C19.8445 24.3156 19.321 24.6547 18.8596 24.9536C18.6636 25.0806 18.4788 25.1996 18.2623 25.2914C18.0062 25.4001 17.7041 25.4708 17.2818 25.4708C16.5027 25.4708 16.1327 25.231 15.7046 24.9536C15.2427 24.6543 14.7197 24.3156 13.7157 24.3156C12.7118 24.3156 12.1888 24.6547 11.7269 24.9536C11.2988 25.2314 10.9288 25.4708 10.1497 25.4708C9.37055 25.4708 9.00055 25.231 8.57238 24.9536C8.17941 24.6988 7.74147 24.4154 7 24.3367V25.0454C7.51077 25.1148 7.81723 25.3134 8.16132 25.5364C8.62273 25.8353 9.1462 26.1744 10.1497 26.1744C11.1536 26.1744 11.6766 25.8353 12.138 25.5364C12.5666 25.2586 12.9361 25.0187 13.7157 25.0187C14.4948 25.0187 14.8648 25.2586 15.2935 25.5364C15.7549 25.8353 16.2784 26.1744 17.2823 26.1744C17.9324 26.1744 18.3801 26.032 18.7408 25.8507C18.9373 25.7519 19.1079 25.6418 19.2706 25.5364C19.6993 25.2586 20.0693 25.0187 20.8484 25.0187C21.6275 25.0187 21.9975 25.2586 22.4262 25.5364C22.8196 25.7912 23.2576 26.0746 23.999 26.1533V25.4446C23.4878 25.3752 23.1813 25.1766 22.8372 24.9536C22.3758 24.6543 21.8528 24.3156 20.8484 24.3156Z" fill="#E0E9FF"/>
<path d="M20.8484 29.1412C20.6959 29.1412 20.5551 29.1496 20.4237 29.1641C19.6881 29.2442 19.2511 29.5258 18.8596 29.7792C18.4314 30.057 18.0614 30.2964 17.2818 30.2964C16.5027 30.2964 16.1327 30.0565 15.7046 29.7792C15.2427 29.4799 14.7197 29.1412 13.7157 29.1412C12.7118 29.1412 12.1888 29.4803 11.7269 29.7792C11.2988 30.057 10.9288 30.2964 10.1497 30.2964C9.37055 30.2964 9.00055 30.0565 8.57238 29.7792C8.17941 29.5244 7.74147 29.2409 7 29.1622V29.871C7.51077 29.9404 7.81723 30.139 8.16132 30.362C8.62273 30.6608 9.1462 31 10.1497 31C11.1536 31 11.6766 30.6608 12.138 30.362C12.5666 30.0842 12.9361 29.8443 13.7157 29.8443C14.4948 29.8443 14.8648 30.0842 15.2935 30.362C15.7549 30.6608 16.2784 31 17.2823 31C18.2862 31 18.8092 30.6613 19.2706 30.362C19.6993 30.0842 20.0693 29.8443 20.8484 29.8443C20.9041 29.8443 20.9569 29.8457 21.0082 29.8481C21.6798 29.879 22.0278 30.1038 22.4257 30.3615C22.8191 30.6163 23.2571 30.8997 23.9985 30.9785V30.2701C23.4873 30.2008 23.1808 30.0022 22.8367 29.7792C22.3758 29.4803 21.8528 29.1412 20.8484 29.1412Z" fill="#E0E9FF"/>
</svg>
