<svg width="114" height="56" viewBox="0 0 114 56" fill="none" xmlns="http://www.w3.org/2000/svg">
<g filter="url(#filter0_d)">
<rect x="7" y="5" width="42" height="42" rx="10" fill="#2F2F2F"/>
</g>
<path d="M28 12C19.7173 12 13 18.7173 13 27C13 35.2827 19.7173 42 28 42C36.2827 42 43 35.2827 43 27C43 18.7173 36.2827 12 28 12ZM34.5455 33.9489C34.5136 33.9489 34.4776 33.9489 34.4457 33.9489C33.3435 33.7692 32.5927 32.9904 31.9497 32.2676C31.5863 31.8602 31.0351 30.9377 30.3722 31.0455C29.4337 31.1973 29.897 32.8027 29.5056 33.4896C29.1901 34.0447 27.8403 33.9449 26.9097 33.845C23.9744 33.5335 22.4728 31.9681 21.1589 30.2827C19.7532 28.4816 18.6589 26.6006 17.6446 24.528C17.3171 23.857 16.8818 23.1182 16.8818 22.2875C17.357 21.9002 18.1358 22.0319 18.9185 22.0319C19.5815 22.0319 20.6198 21.8842 21.107 22.1318C21.3946 22.2796 21.6901 23.0583 21.9217 23.5575C22.4569 24.6997 22.9521 25.5224 23.603 26.4609C23.8866 26.8682 24.3179 27.631 24.8251 27.5311C25.3163 27.4313 25.3642 26.2212 25.3842 25.4425C25.4081 24.5599 25.3842 23.4657 25.1286 22.9984C24.889 22.5591 24.4497 22.5471 24.0104 22.2875C24.3778 21.5447 25.3882 21.4728 26.6062 21.4728C27.6286 21.4728 29.0583 21.357 29.4577 22.0319C29.865 22.7188 29.5855 23.9569 29.5575 24.8834C29.5296 25.9257 29.3498 27 30.0647 27.4792C30.6198 27.4193 30.9153 26.8802 31.2348 26.4609C31.9377 25.5423 32.373 24.7436 32.9161 23.5575C33.1398 23.0703 33.3794 22.2356 33.7827 22.0799C34.3978 21.8482 35.3762 22.028 36.2788 22.028C37.0176 22.028 38.3315 21.8243 38.5711 22.3315C38.7668 22.7548 38.1917 23.8211 38.012 24.1126C37.3291 25.2308 36.6621 25.9417 35.9233 26.9121C35.6278 27.2995 35.0208 27.9225 35.0567 28.5415C35.0847 29.0128 35.5559 29.3722 35.9233 29.7117C36.7141 30.4465 37.2692 30.9816 37.9081 31.8003C38.1478 32.1078 38.6709 32.7748 38.619 33.1741C38.4633 34.4321 35.5319 33.6494 34.5455 33.9489Z" fill="#E0E9FF"/>
<g opacity="0.2" filter="url(#filter1_d)">
<rect x="65" y="5" width="42" height="42" rx="10" fill="#2F2F2F"/>
</g>
<g filter="url(#filter2_d)">
<rect x="56" y="5" width="42" height="42" rx="10" fill="#2F2F2F" fill-opacity="0.71"/>
</g>
<g filter="url(#filter3_d)">
<rect x="47" y="5" width="42" height="42" rx="10" fill="#2F2F2F"/>
</g>
<path d="M67.996 22.7585C66.2388 22.7585 64.8171 24.1809 64.8171 25.9389C64.8171 27.6969 66.2388 29.1194 67.996 29.1194C69.7532 29.1194 71.1749 27.6969 71.1749 25.9389C71.1749 24.1809 69.7532 22.7585 67.996 22.7585Z" fill="#E0E9FF"/>
<path d="M68 11C59.7173 11 53 17.7204 53 26.007C53 34.2937 59.7173 41.0141 68 41.0141C76.2827 41.0141 83 34.2937 83 26.007C83 17.7164 76.2827 11 68 11ZM76.8139 30.9255C76.8139 33.2029 74.9529 35.0688 72.6725 35.0688H63.3235C61.0471 35.0688 59.1821 33.2069 59.1821 30.9255V21.0886C59.1821 18.8112 61.0431 16.9453 63.3235 16.9453H72.6725C74.9489 16.9453 76.8139 18.8072 76.8139 21.0886V30.9255Z" fill="#E0E9FF"/>
<path d="M71.6861 18.2997H64.3139C63.3115 18.2997 62.365 18.6953 61.6502 19.4105C60.9353 20.1257 60.54 21.0726 60.54 22.0755V29.9346C60.54 30.9375 60.9353 31.8844 61.6502 32.5996C62.365 33.3148 63.3115 33.7103 64.3139 33.7103H71.6861C72.6885 33.7103 73.635 33.3148 74.3499 32.5996C75.0647 31.8844 75.4601 30.9375 75.4601 29.9346V22.0755C75.4601 21.0726 75.0647 20.1257 74.3499 19.4105C73.635 18.6953 72.6885 18.2997 71.6861 18.2997ZM68.028 30.7936C65.3483 30.7936 63.1717 28.6201 63.1717 25.9351C63.1717 23.2541 65.3443 21.0766 68.028 21.0766C70.7117 21.0766 72.8842 23.2501 72.8842 25.9351C72.8802 28.6201 70.7077 30.7936 68.028 30.7936ZM72.9601 22.1554C72.3251 22.1554 71.8099 21.64 71.8099 21.0047C71.8099 20.3694 72.3251 19.854 72.9601 19.854C73.5951 19.854 74.1102 20.3694 74.1102 21.0047C74.1102 21.64 73.5951 22.1554 72.9601 22.1554Z" fill="#E0E9FF"/>
<g filter="url(#filter4_d)">
<rect x="28" y="5" width="42" height="42" rx="10" fill="#2F2F2F"/>
</g>
<path d="M49 11C40.7281 11 34 17.7281 34 26C34 28.8202 34.7851 31.5614 36.2719 33.9386C35.6798 36.0132 34.6096 39.943 34.6009 39.9825C34.5439 40.1842 34.6053 40.4035 34.7544 40.5482C34.9079 40.693 35.1272 40.75 35.3246 40.6842L41.2675 38.8553C43.5965 40.2588 46.2632 41 49 41C57.2719 41 64 34.2719 64 26C64 17.7281 57.2719 11 49 11ZM58.3991 32.2456C58.0175 33.3289 56.4956 34.2237 55.2851 34.4868C54.4561 34.6623 53.3728 34.8026 49.7237 33.2939C45.057 31.3596 42.0526 26.6228 41.8202 26.3114C41.5965 26.0044 39.9342 23.8026 39.9342 21.5219C39.9342 19.2412 41.0921 18.136 41.557 17.6579C41.9386 17.2675 42.5746 17.0877 43.1798 17.0877C43.3772 17.0877 43.5526 17.0965 43.7105 17.1053C44.1754 17.1272 44.4123 17.1535 44.7193 17.8904C45.1009 18.8114 46.0351 21.0921 46.1447 21.3246C46.2588 21.557 46.3728 21.8772 46.2105 22.1842C46.0614 22.5 45.9298 22.6447 45.6974 22.9123C45.4649 23.1842 45.2412 23.3904 45.0088 23.6798C44.7939 23.9298 44.5526 24.2018 44.8202 24.6667C45.0921 25.1228 46.0219 26.6447 47.3947 27.8684C49.1667 29.4474 50.6053 29.9518 51.1184 30.1623C51.5 30.3202 51.9561 30.2851 52.2368 29.9868C52.5921 29.6053 53.0307 28.9693 53.4781 28.3421C53.7939 27.8947 54.1974 27.8377 54.6184 27.9956C55.0482 28.1447 57.3158 29.2675 57.7807 29.4956C58.2456 29.7281 58.5526 29.8421 58.6667 30.0395C58.7851 30.2412 58.7851 31.1623 58.3991 32.2456Z" fill="#E0E9FF"/>
<defs>
<filter id="filter0_d" x="0" y="0" width="56" height="56" filterUnits="userSpaceOnUse" color-interpolation-filters="sRGB">
<feFlood flood-opacity="0" result="BackgroundImageFix"/>
<feColorMatrix in="SourceAlpha" type="matrix" values="0 0 0 0 0 0 0 0 0 0 0 0 0 0 0 0 0 0 127 0"/>
<feOffset dy="2"/>
<feGaussianBlur stdDeviation="3.5"/>
<feColorMatrix type="matrix" values="0 0 0 0 0 0 0 0 0 0 0 0 0 0 0 0 0 0 0.1 0"/>
<feBlend mode="normal" in2="BackgroundImageFix" result="effect1_dropShadow"/>
<feBlend mode="normal" in="SourceGraphic" in2="effect1_dropShadow" result="shape"/>
</filter>
<filter id="filter1_d" x="58" y="0" width="56" height="56" filterUnits="userSpaceOnUse" color-interpolation-filters="sRGB">
<feFlood flood-opacity="0" result="BackgroundImageFix"/>
<feColorMatrix in="SourceAlpha" type="matrix" values="0 0 0 0 0 0 0 0 0 0 0 0 0 0 0 0 0 0 127 0"/>
<feOffset dy="2"/>
<feGaussianBlur stdDeviation="3.5"/>
<feColorMatrix type="matrix" values="0 0 0 0 0 0 0 0 0 0 0 0 0 0 0 0 0 0 0.1 0"/>
<feBlend mode="normal" in2="BackgroundImageFix" result="effect1_dropShadow"/>
<feBlend mode="normal" in="SourceGraphic" in2="effect1_dropShadow" result="shape"/>
</filter>
<filter id="filter2_d" x="49" y="0" width="56" height="56" filterUnits="userSpaceOnUse" color-interpolation-filters="sRGB">
<feFlood flood-opacity="0" result="BackgroundImageFix"/>
<feColorMatrix in="SourceAlpha" type="matrix" values="0 0 0 0 0 0 0 0 0 0 0 0 0 0 0 0 0 0 127 0"/>
<feOffset dy="2"/>
<feGaussianBlur stdDeviation="3.5"/>
<feColorMatrix type="matrix" values="0 0 0 0 0 0 0 0 0 0 0 0 0 0 0 0 0 0 0.1 0"/>
<feBlend mode="normal" in2="BackgroundImageFix" result="effect1_dropShadow"/>
<feBlend mode="normal" in="SourceGraphic" in2="effect1_dropShadow" result="shape"/>
</filter>
<filter id="filter3_d" x="40" y="0" width="56" height="56" filterUnits="userSpaceOnUse" color-interpolation-filters="sRGB">
<feFlood flood-opacity="0" result="BackgroundImageFix"/>
<feColorMatrix in="SourceAlpha" type="matrix" values="0 0 0 0 0 0 0 0 0 0 0 0 0 0 0 0 0 0 127 0"/>
<feOffset dy="2"/>
<feGaussianBlur stdDeviation="3.5"/>
<feColorMatrix type="matrix" values="0 0 0 0 0 0 0 0 0 0 0 0 0 0 0 0 0 0 0.1 0"/>
<feBlend mode="normal" in2="BackgroundImageFix" result="effect1_dropShadow"/>
<feBlend mode="normal" in="SourceGraphic" in2="effect1_dropShadow" result="shape"/>
</filter>
<filter id="filter4_d" x="21" y="0" width="56" height="56" filterUnits="userSpaceOnUse" color-interpolation-filters="sRGB">
<feFlood flood-opacity="0" result="BackgroundImageFix"/>
<feColorMatrix in="SourceAlpha" type="matrix" values="0 0 0 0 0 0 0 0 0 0 0 0 0 0 0 0 0 0 127 0"/>
<feOffset dy="2"/>
<feGaussianBlur stdDeviation="3.5"/>
<feColorMatrix type="matrix" values="0 0 0 0 0 0 0 0 0 0 0 0 0 0 0 0 0 0 0.1 0"/>
<feBlend mode="normal" in2="BackgroundImageFix" result="effect1_dropShadow"/>
<feBlend mode="normal" in="SourceGraphic" in2="effect1_dropShadow" result="shape"/>
</filter>
</defs>
</svg>
