<svg width="44" height="44" viewBox="0 0 44 44" fill="none" xmlns="http://www.w3.org/2000/svg">
<g filter="url(#filter0_d)">
<rect x="7" y="5" width="30" height="30" rx="10" fill="#2F2F2F"/>
</g>
<path d="M27.8335 23.7203C27.8335 24.8753 28.7563 25.8327 29.9108 25.8327C31.0686 25.8327 32.0002 24.8753 32.0002 23.7203C32.0002 22.5661 31.0686 21.666 29.9108 21.666C28.7563 21.666 27.8335 22.5661 27.8335 23.7203Z" fill="#FFC657"/>
<path d="M29.4631 11.5048C29.1303 11.4404 27.224 11.4404 27.224 11.4404C27.224 11.4404 25.8738 11.4038 25.4401 11.4602C25.0591 11.5058 24.876 11.6067 24.6779 11.8616C24.5936 11.9939 21.3895 16.7223 21.2533 16.8756C21.1304 16.9867 20.8275 16.9608 20.7903 16.7582C20.7532 16.6106 19.6027 12.3895 19.4079 11.9695C19.206 11.5478 18.821 11.456 18.5655 11.456C18.3098 11.456 17.9895 11.4508 16.9213 11.4508C16.7507 11.4508 16.5946 11.4496 16.4517 11.4486L16.4514 11.4486C15.8084 11.4438 15.4341 11.441 15.2137 11.555C14.9444 11.6596 14.8574 11.9084 14.8574 12.2912C14.8574 12.6722 14.9577 13.0027 15.0956 13.384C15.7509 15.3294 17.8399 21.505 17.8399 21.505C17.8399 21.505 16.9599 26.1008 16.8517 26.7079C16.7418 27.3155 17.1581 27.7693 17.507 27.8128C17.7747 27.8407 19.1761 27.8512 19.1761 27.8512C19.1761 27.8512 20.5017 27.8573 20.6905 27.8573C20.9059 27.8573 21.2437 27.765 21.434 27.4671C21.6277 27.2203 21.693 27.0255 21.7721 26.5752C21.8767 26.1256 23.0599 21.6611 23.0599 21.6611C23.0599 21.6611 29.6381 12.7439 29.7586 12.4061C29.9846 11.953 29.7964 11.5531 29.4631 11.5048Z" fill="#E0E9FF"/>
<defs>
<filter id="filter0_d" x="0" y="0" width="44" height="44" filterUnits="userSpaceOnUse" color-interpolation-filters="sRGB">
<feFlood flood-opacity="0" result="BackgroundImageFix"/>
<feColorMatrix in="SourceAlpha" type="matrix" values="0 0 0 0 0 0 0 0 0 0 0 0 0 0 0 0 0 0 127 0"/>
<feOffset dy="2"/>
<feGaussianBlur stdDeviation="3.5"/>
<feColorMatrix type="matrix" values="0 0 0 0 0 0 0 0 0 0 0 0 0 0 0 0 0 0 0.1 0"/>
<feBlend mode="normal" in2="BackgroundImageFix" result="effect1_dropShadow"/>
<feBlend mode="normal" in="SourceGraphic" in2="effect1_dropShadow" result="shape"/>
</filter>
</defs>
</svg>
