<svg width="44" height="44" viewBox="0 0 44 44" fill="none" xmlns="http://www.w3.org/2000/svg">
<g filter="url(#filter0_d)">
<rect x="7" y="5" width="30" height="30" rx="10" fill="#2F2F2F"/>
</g>
<path d="M15.2441 28.4792H14.0187C13.7444 28.4792 13.522 28.2568 13.522 27.9825V22.0212C13.522 21.7468 13.7444 21.5244 14.0187 21.5244H15.2441C15.5185 21.5244 15.7409 21.7468 15.7409 22.0212V27.9825C15.7409 28.2568 15.5185 28.4792 15.2441 28.4792Z" fill="#E0E9FF"/>
<path d="M29.8575 23.0746C29.4745 22.8638 29.0072 22.8782 28.6379 23.1121L26.8203 24.2632C26.7654 24.7321 26.5589 25.1673 26.2225 25.5118C25.8137 25.9303 25.2669 26.1608 24.6827 26.1608H22.2129C21.9454 26.1608 21.7153 25.9553 21.7027 25.6881C21.6892 25.4028 21.9165 25.1673 22.1989 25.1673H24.6827C25.3312 25.1673 25.857 24.632 25.8415 23.9802C25.8266 23.3474 25.2939 22.849 24.661 22.849H21.8677L21.5437 22.606C20.8984 22.122 20.0988 21.8555 19.2921 21.8555C18.6121 21.8555 17.9445 22.0404 17.3614 22.3902L16.7344 22.7665V27.8167H25.0843C25.5672 27.8167 26.0395 27.676 26.4436 27.4118L29.9356 25.1286C30.2755 24.9063 30.4784 24.5312 30.4784 24.125C30.4784 23.6879 30.2405 23.2854 29.8575 23.0746Z" fill="#E0E9FF"/>
<path d="M20.5431 11.5225C18.2604 11.5225 16.4033 13.3796 16.4033 15.6622C16.4033 17.9449 18.2604 19.802 20.5431 19.802C22.8258 19.802 24.6829 17.9449 24.6829 15.6622C24.6829 13.3796 22.8258 11.5225 20.5431 11.5225ZM21.0399 17.7179V17.8149C21.0399 18.0893 20.8174 18.3117 20.5431 18.3117C20.2687 18.3117 20.0463 18.0893 20.0463 17.8149V17.7175C19.6449 17.554 19.3351 17.1983 19.245 16.7546C19.1904 16.4858 19.3641 16.2236 19.633 16.1689C19.9018 16.1144 20.1641 16.288 20.2187 16.5569C20.2498 16.7101 20.3863 16.8213 20.5431 16.8213C20.7257 16.8213 20.8743 16.6728 20.8743 16.4902C20.8743 16.3075 20.7257 16.159 20.5431 16.159C19.8127 16.159 19.2184 15.5647 19.2184 14.8342C19.2184 14.2795 19.5614 13.8035 20.0464 13.6065V13.5096C20.0464 13.2352 20.2688 13.0128 20.5431 13.0128C20.8175 13.0128 21.0399 13.2352 21.0399 13.5096V13.607C21.4414 13.7705 21.7511 14.1261 21.8412 14.5698C21.8958 14.8387 21.7221 15.1009 21.4532 15.1556C21.1844 15.2101 20.9222 15.0364 20.8675 14.7676C20.8364 14.6143 20.6999 14.5031 20.5431 14.5031C20.3605 14.5031 20.2119 14.6517 20.2119 14.8343C20.2119 15.0169 20.3605 15.1655 20.5431 15.1655C21.2736 15.1655 21.8678 15.7597 21.8678 16.4902C21.8678 17.045 21.5248 17.521 21.0399 17.7179Z" fill="#E0E9FF"/>
<path d="M30.4317 18.2061C30.35 18.0315 30.1746 17.92 29.9819 17.92H29.2588C28.8197 16.1859 27.8298 14.6167 26.4418 13.4672C25.7961 12.9324 25.0768 12.5006 24.3115 12.1807C25.1582 13.0963 25.6765 14.3199 25.6765 15.6624C25.6765 16.0753 25.6271 16.4769 25.5347 16.8618C25.7653 17.1924 25.9604 17.5473 26.1137 17.92H25.6765C25.4837 17.92 25.3084 18.0315 25.2266 18.2061C25.1448 18.3807 25.1715 18.5868 25.2949 18.7348L27.4476 21.318C27.5419 21.4313 27.6817 21.4968 27.8292 21.4968C27.9766 21.4968 28.1164 21.4313 28.2108 21.318L30.3635 18.7348C30.4869 18.5868 30.5135 18.3806 30.4317 18.2061Z" fill="#E0E9FF"/>
<defs>
<filter id="filter0_d" x="0" y="0" width="44" height="44" filterUnits="userSpaceOnUse" color-interpolation-filters="sRGB">
<feFlood flood-opacity="0" result="BackgroundImageFix"/>
<feColorMatrix in="SourceAlpha" type="matrix" values="0 0 0 0 0 0 0 0 0 0 0 0 0 0 0 0 0 0 127 0"/>
<feOffset dy="2"/>
<feGaussianBlur stdDeviation="3.5"/>
<feColorMatrix type="matrix" values="0 0 0 0 0 0 0 0 0 0 0 0 0 0 0 0 0 0 0.1 0"/>
<feBlend mode="normal" in2="BackgroundImageFix" result="effect1_dropShadow"/>
<feBlend mode="normal" in="SourceGraphic" in2="effect1_dropShadow" result="shape"/>
</filter>
</defs>
</svg>
