<svg width="60" height="60" viewBox="0 0 60 60" fill="none" xmlns="http://www.w3.org/2000/svg">
<g filter="url(#filter0_d)">
<rect x="7" y="5" width="46" height="46" rx="10" fill="#2F2F2F"/>
</g>
<path d="M29.7194 40.887C31.1066 40.887 32.2416 39.767 32.2416 38.3983H27.1972C27.1972 39.767 28.3322 40.887 29.7194 40.887ZM37.9166 33.4209V26.577C37.9166 22.7195 35.2682 19.6086 31.611 18.7376V17.8665C31.611 16.871 30.7283 16 29.7194 16C28.7105 16 27.8277 16.871 27.8277 17.8665V18.7376C24.1705 19.6086 21.5222 22.7195 21.5222 26.577V33.4209L19 35.9096V37.1539H40.4388V35.9096L37.9166 33.4209Z" fill="#FD0C15"/>
<defs>
<filter id="filter0_d" x="0" y="0" width="60" height="60" filterUnits="userSpaceOnUse" color-interpolation-filters="sRGB">
<feFlood flood-opacity="0" result="BackgroundImageFix"/>
<feColorMatrix in="SourceAlpha" type="matrix" values="0 0 0 0 0 0 0 0 0 0 0 0 0 0 0 0 0 0 127 0"/>
<feOffset dy="2"/>
<feGaussianBlur stdDeviation="3.5"/>
<feColorMatrix type="matrix" values="0 0 0 0 0 0 0 0 0 0 0 0 0 0 0 0 0 0 0.1 0"/>
<feBlend mode="normal" in2="BackgroundImageFix" result="effect1_dropShadow"/>
<feBlend mode="normal" in="SourceGraphic" in2="effect1_dropShadow" result="shape"/>
</filter>
</defs>
</svg>
