<svg width="41" height="40" viewBox="0 0 41 40" fill="none" xmlns="http://www.w3.org/2000/svg">
<path d="M20.9995 5C12.7157 5 6 11.7159 6 20C6 28.2838 12.7157 34.9999 20.9995 34.9999C29.2838 34.9999 36 28.2837 36 20C36 11.7159 29.2838 5 20.9995 5ZM27.0951 26.7135V27.7509C27.0951 28.3238 26.6305 28.7883 26.0576 28.7883H25.0202H19.2945H15.6831C14.5372 28.7883 13.6081 27.8593 13.6081 26.7134V13.6592C13.6081 12.5134 14.5371 11.5843 15.6831 11.5843H19.2944H25.0201H26.0575C26.6304 11.5843 27.095 12.0488 27.095 12.6217V13.6592H27.0951V26.7135ZM29.1699 13.6592V26.7135V27.7509C29.1699 28.3238 28.7054 28.7883 28.1325 28.7883H27.8519C28.0293 28.4828 28.1325 28.129 28.1325 27.7509V26.7135V13.6592V12.6219C28.1325 12.2438 28.0293 11.89 27.8519 11.5845H28.1325C28.7054 11.5845 29.1699 12.049 29.1699 12.6219V13.6592Z" fill="#6F6EFF"/>
<path d="M23.5593 21.5522C23.5593 21.5522 23.1684 21.083 22.7356 21.4067C22.4129 21.6479 21.8332 22.1843 21.6939 22.3145C21.6939 22.3145 20.7249 21.7979 20.1515 21.3261C19.3021 20.6276 18.7341 19.7653 18.4364 19.2748L18.2141 18.8557C18.2916 18.7722 18.8851 18.1368 19.1418 17.7917C19.465 17.3591 18.9966 16.9682 18.9966 16.9682C18.9966 16.9682 17.6783 15.6499 17.3782 15.3884C17.0779 15.1262 16.732 15.2717 16.732 15.2717C16.1005 15.6799 15.4461 16.0345 15.4072 17.7403C15.4059 19.3373 16.6181 20.9842 17.9288 22.2592C19.2419 23.6994 21.045 25.1426 22.7877 25.141C24.4932 25.1026 24.8475 24.448 25.2555 23.8165C25.2555 23.8165 25.4015 23.4709 25.1396 23.1706C24.8776 22.8698 23.5593 21.5522 23.5593 21.5522Z" fill="#6F6EFF"/>
</svg>
