<svg width="68" height="68" viewBox="0 0 68 68" fill="none" xmlns="http://www.w3.org/2000/svg">
<g filter="url(#filter0_d)">
<path d="M63.487 28.1782L45.488 0.905454C45.104 0.327272 44.5681 0 44.0001 0L32.0007 0C31.2128 0 30.4968 0.632727 30.1728 1.61455C29.8528 2.60182 29.9848 3.75273 30.5128 4.54909L47.3079 30L30.5128 55.4455C29.9848 56.2473 29.8488 57.3982 30.1728 58.38C30.4968 59.3673 31.2128 60 32.0007 60H44.0001C44.5681 60 45.104 59.6673 45.488 59.1L63.487 31.8273C64.171 30.7909 64.171 29.2091 63.487 28.1782Z" fill="#EEF3F6"/>
<path d="M37.4884 28.1782L19.4894 0.905454C19.1054 0.327272 18.5695 0 18.0015 0L6.00214 0C5.21418 0 4.49822 0.632727 4.17424 1.61455C3.85426 2.60182 3.98625 3.75273 4.51422 4.54909L21.3093 30L4.51422 55.4455C3.98625 56.2473 3.85026 57.3982 4.17424 58.38C4.49822 59.3673 5.21418 60 6.00214 60H18.0015C18.5695 60 19.1054 59.6673 19.4894 59.1L37.4884 31.8273C38.1724 30.7909 38.1724 29.2091 37.4884 28.1782Z" fill="#EEF3F6"/>
</g>
<defs>
<filter id="filter0_d" x="0" y="0" width="68" height="68" filterUnits="userSpaceOnUse" color-interpolation-filters="sRGB">
<feFlood flood-opacity="0" result="BackgroundImageFix"/>
<feColorMatrix in="SourceAlpha" type="matrix" values="0 0 0 0 0 0 0 0 0 0 0 0 0 0 0 0 0 0 127 0"/>
<feOffset dy="4"/>
<feGaussianBlur stdDeviation="2"/>
<feColorMatrix type="matrix" values="0 0 0 0 0 0 0 0 0 0 0 0 0 0 0 0 0 0 0.25 0"/>
<feBlend mode="normal" in2="BackgroundImageFix" result="effect1_dropShadow"/>
<feBlend mode="normal" in="SourceGraphic" in2="effect1_dropShadow" result="shape"/>
</filter>
</defs>
</svg>
