<svg width="41" height="40" viewBox="0 0 41 40" fill="none" xmlns="http://www.w3.org/2000/svg">
<path d="M22.3558 16.317L17.2725 12.5003V27.5003L22.3558 23.6837L27.2725 20.0003L22.3558 16.317ZM22.3558 16.317L17.2725 12.5003V27.5003L22.3558 23.6837L27.2725 20.0003L22.3558 16.317ZM22.3558 16.317L17.2725 12.5003V27.5003L22.3558 23.6837L27.2725 20.0003L22.3558 16.317ZM18.9391 6.78366V3.41699C15.5891 3.75033 12.5391 5.08366 10.0725 7.10033L12.4391 9.48366C14.2891 8.05033 16.5058 7.08366 18.9391 6.78366ZM10.0891 11.8337L7.70579 9.46699C5.68913 11.9337 4.35579 14.9837 4.02246 18.3337H7.38913C7.68913 15.9003 8.65579 13.6837 10.0891 11.8337ZM7.38913 21.667H4.02246C4.35579 25.017 5.68913 28.067 7.70579 30.5337L10.0891 28.1503C8.65579 26.317 7.68913 24.1003 7.38913 21.667V21.667ZM10.0725 32.9003C12.5391 34.917 15.6058 36.2503 18.9391 36.5837V33.217C16.5058 32.917 14.2891 31.9503 12.4391 30.517L10.0725 32.9003V32.9003ZM37.2725 20.0003C37.2725 28.6003 30.7391 35.7003 22.3558 36.5837V33.217C28.8891 32.3503 33.9391 26.7503 33.9391 20.0003C33.9391 13.2503 28.8891 7.65033 22.3558 6.78366V3.41699C30.7391 4.30033 37.2725 11.4003 37.2725 20.0003Z" fill="#7B7AF1"/>
</svg>
