<svg width="79" height="58" viewBox="0 0 79 58" fill="none" xmlns="http://www.w3.org/2000/svg">
<path d="M78.3246 27.2389L54.6259 0.875272C54.1203 0.316363 53.4146 0 52.6668 0L36.8676 0C35.8302 0 34.8875 0.611636 34.4609 1.56073C34.0396 2.51509 34.2134 3.62764 34.9085 4.39745L57.0221 29L34.9085 53.5973C34.2134 54.3724 34.0343 55.4849 34.4609 56.434C34.8875 57.3884 35.8302 58 36.8676 58H52.6668C53.4146 58 54.1203 57.6784 54.6259 57.13L78.3246 30.7664C79.2251 29.7645 79.2251 28.2355 78.3246 27.2389Z" fill="url(#paint0_linear)"/>
<path d="M44.0931 27.2389L20.3944 0.875272C19.8888 0.316363 19.1831 0 18.4353 0L2.63615 0C1.59867 0 0.655992 0.611636 0.229416 1.56073C-0.191895 2.51509 -0.0181044 3.62764 0.677058 4.39745L22.7906 29L0.677058 53.5973C-0.0181044 54.3724 -0.197161 55.4849 0.229416 56.434C0.655992 57.3884 1.59867 58 2.63615 58H18.4353C19.1831 58 19.8888 57.6784 20.3944 57.13L44.0931 30.7664C44.9937 29.7645 44.9937 28.2355 44.0931 27.2389Z" fill="url(#paint1_linear)"/>
<defs>
<linearGradient id="paint0_linear" x1="-24" y1="63.5" x2="86" y2="9.50001" gradientUnits="userSpaceOnUse">
<stop stop-color="#6983F5"/>
<stop offset="0.5" stop-color="#7B7AF0"/>
<stop offset="1" stop-color="#8C73EA"/>
</linearGradient>
<linearGradient id="paint1_linear" x1="-24" y1="63.5" x2="86" y2="9.50001" gradientUnits="userSpaceOnUse">
<stop stop-color="#6983F5"/>
<stop offset="0.5" stop-color="#7B7AF0"/>
<stop offset="1" stop-color="#8C73EA"/>
</linearGradient>
</defs>
</svg>
