<svg width="1440" height="1989" viewBox="0 0 1440 1989" fill="none" xmlns="http://www.w3.org/2000/svg">
<rect x="-3" y="-2" width="1440" height="1989" fill="#EFF4F8"/>
<path d="M1308.57 251.009C1292.95 287.979 1280.21 325.049 1261.16 327.444C1242.18 329.86 1216.87 297.677 1182.69 275.534C1148.42 253.369 1105.33 241.217 1094.33 215.362C1083.38 189.481 1104.49 149.848 1133.6 135.077C1162.66 120.333 1199.69 130.401 1238.93 135.428C1278.2 140.504 1319.76 140.56 1331.27 158.936C1342.73 177.34 1324.22 214.087 1308.57 251.009Z" fill="#627FF7" fill-opacity="0.4"/>
<path d="M1389 922.086C1476.67 1093.56 1275.74 1337.92 1176.23 1381.87C1076.41 1425.63 846.008 1352.47 606.811 1277.61C367.288 1202.55 119.289 1125.98 7.43435 1015.78C-104.323 905.417 -79.5137 761.459 -4.26399 690.656C71.2139 620.21 441.456 628.677 581 604.086C720.545 579.495 860.97 438.304 1009.48 503.379C1157.9 568.612 1301.43 750.455 1389 922.086Z" fill="url(#paint0_linear)"/>
<path d="M334.555 2385.73C170.128 2285.47 213.524 1972.09 275.327 1882.58C337.511 1793.06 572.134 1734.87 815.149 1673.52C1058.55 1612.18 1309.96 1547.68 1462.94 1583.08C1615.92 1618.66 1670.09 1754.33 1643 1854.04C1615.54 1953.56 1295.58 2140.05 1189.52 2234.01C1083.46 2327.98 1037.66 2521.77 877.048 2544.01C716.436 2566.06 498.981 2486.19 334.555 2385.73Z" fill="url(#paint1_linear)"/>
<defs>
<linearGradient id="paint0_linear" x1="845.246" y1="624.151" x2="436.035" y2="1290.72" gradientUnits="userSpaceOnUse">
<stop stop-color="#8E72E9" stop-opacity="0.55"/>
<stop offset="1" stop-color="#647EF6"/>
</linearGradient>
<linearGradient id="paint1_linear" x1="953.828" y1="2355.16" x2="953.828" y2="1573" gradientUnits="userSpaceOnUse">
<stop stop-color="#8E72E9" stop-opacity="0.55"/>
<stop offset="1" stop-color="#647EF6"/>
</linearGradient>
</defs>
</svg>
