<svg width="34" height="34" viewBox="0 0 34 34" fill="none" xmlns="http://www.w3.org/2000/svg">
<path d="M14.9167 3.36667V0C11.5667 0.333333 8.51667 1.66667 6.05 3.68333L8.41667 6.06667C10.2667 4.63333 12.4833 3.66667 14.9167 3.36667ZM6.06667 8.41667L3.68333 6.05C1.66667 8.51667 0.333333 11.5667 0 14.9167H3.36667C3.66667 12.4833 4.63333 10.2667 6.06667 8.41667ZM3.36667 18.25H0C0.333333 21.6 1.66667 24.65 3.68333 27.1167L6.06667 24.7333C4.63333 22.9 3.66667 20.6833 3.36667 18.25ZM6.05 29.4833C8.51667 31.5 11.5833 32.8333 14.9167 33.1667V29.8C12.4833 29.5 10.2667 28.5333 8.41667 27.1L6.05 29.4833ZM33.25 16.5833C33.25 25.1833 26.7167 32.2833 18.3333 33.1667V29.8C24.8667 28.9333 29.9167 23.3333 29.9167 16.5833C29.9167 9.83333 24.8667 4.23333 18.3333 3.36667V0C26.7167 0.883333 33.25 7.98333 33.25 16.5833Z" fill="#7B7AF1"/>
</svg>
