<svg width="46" height="46" viewBox="0 0 46 46" fill="none" xmlns="http://www.w3.org/2000/svg">
<g filter="url(#filter0_d)">
<path d="M40.6534 18.6525L35.911 7.10291C35.5393 6.19665 34.8223 5.47743 33.9207 5.1007L22.3956 0.284875C21.4914 -0.0918556 20.4765 -0.0944901 19.5697 0.274337L8.01555 5.0164C7.10872 5.38786 6.38906 6.10444 6.01209 7.00543L1.19326 18.5234C0.81629 19.427 0.813654 20.4413 1.18271 21.3475L5.9251 32.8971C6.29679 33.8034 7.01382 34.5226 7.91537 34.8993L19.4405 39.7151C20.3447 40.0919 21.3596 40.0945 22.2664 39.7257L33.8232 34.9862C34.73 34.6148 35.4497 33.8982 35.8267 32.9972L40.6455 21.4793C41.0225 20.573 41.0251 19.5561 40.6534 18.6525ZM27.022 31.8091C25.1108 31.8091 23.3604 31.0898 22.0081 29.8964C21.9158 29.8253 21.8288 29.7515 21.7392 29.6778C20.3579 30.9976 18.5179 31.8012 16.4933 31.8012C12.4442 31.8012 9.12272 28.5792 8.77475 24.4668C8.79848 21.4766 8.8222 18.4865 8.83011 15.8546C8.83538 13.2281 8.82747 10.9598 8.83538 9.77164C8.84593 8.58348 8.87229 8.47547 8.89865 8.39117C8.93028 8.30686 8.96192 8.24891 9.01464 8.21729C9.06472 8.18568 9.1359 8.18041 9.19917 8.18568C9.26243 8.18831 9.32043 8.20412 9.8582 8.7073C10.396 9.20786 11.4135 10.2011 12.0857 10.9097C12.7579 11.6158 13.0901 12.0399 13.2693 12.3323C13.4512 12.6221 13.4829 12.7828 13.5066 12.9198C13.5356 13.0568 13.5567 13.1754 13.562 15.0959C13.5699 17.0165 13.5593 20.7416 13.5488 24.4668C13.9706 25.9289 15.1173 26.9801 16.4643 26.9801C17.756 26.9801 18.8606 26.0158 19.3245 24.6459C19.3193 24.5906 19.3113 24.5326 19.3061 24.4773H19.3799C19.3799 24.4747 19.3825 24.4694 19.3825 24.4668C19.4036 23.2022 19.4247 21.935 19.4458 21.2448C19.4669 20.5519 19.4906 20.4334 19.517 20.2964C19.5433 20.1594 19.5723 20.004 19.7542 19.7115C19.9335 19.4217 20.263 18.9976 20.9378 18.2889C21.61 17.5802 22.6276 16.5897 23.1654 16.0838C23.7031 15.5833 23.7585 15.5675 23.8244 15.5622C23.8877 15.5596 23.9562 15.5649 24.0089 15.5965C24.059 15.6281 24.0933 15.686 24.1249 15.7677C24.1539 15.852 24.1776 15.96 24.1882 17.1482C24.1961 18.3363 24.1882 20.602 24.1882 22.0035C24.1908 23.4024 24.204 23.9346 24.2172 24.4668C24.2093 24.5642 24.1961 24.6617 24.1855 24.7592C24.3042 25.0648 24.4386 25.3467 24.6047 25.6049C24.7128 25.7656 24.834 25.9184 24.9632 26.0554C24.9896 26.0843 25.0159 26.1107 25.0449 26.1397C25.5774 26.6692 26.2575 26.988 27.0009 26.988C28.3506 26.988 29.4947 25.9394 29.9165 24.4773C29.927 22.7306 29.9376 20.9866 29.9376 18.9791C29.9376 16.9743 29.9297 14.7086 29.9376 13.5205C29.9481 12.3323 29.9718 12.2243 30.0008 12.14C30.0325 12.0557 30.0641 11.9978 30.1168 11.9662C30.1695 11.9345 30.2381 11.9293 30.3013 11.9345C30.3646 11.9372 30.4226 11.953 30.9604 12.4562C31.4981 12.9567 32.5131 13.9499 33.1879 14.6586C33.8601 15.3646 34.1923 15.7888 34.3715 16.0812C34.5534 16.3736 34.585 16.5317 34.6088 16.6687C34.6378 16.8057 34.6589 16.9242 34.6826 18.2204C34.7063 19.5192 34.7274 21.9983 34.7511 24.4773C34.3952 28.5871 31.0711 31.8091 27.022 31.8091Z" fill="url(#paint0_linear)"/>
</g>
<defs>
<filter id="filter0_d" x="0.908203" y="0" width="45.0517" height="45.0297" filterUnits="userSpaceOnUse" color-interpolation-filters="sRGB">
<feFlood flood-opacity="0" result="BackgroundImageFix"/>
<feColorMatrix in="SourceAlpha" type="matrix" values="0 0 0 0 0 0 0 0 0 0 0 0 0 0 0 0 0 0 127 0"/>
<feOffset dx="2.51485" dy="2.51485"/>
<feGaussianBlur stdDeviation="1.25743"/>
<feColorMatrix type="matrix" values="0 0 0 0 0.376471 0 0 0 0 0.227451 0 0 0 0 0.733333 0 0 0 0.25 0"/>
<feBlend mode="normal" in2="BackgroundImageFix" result="effect1_dropShadow"/>
<feBlend mode="normal" in="SourceGraphic" in2="effect1_dropShadow" result="shape"/>
</filter>
<linearGradient id="paint0_linear" x1="0.908203" y1="0" x2="26.061" y2="38.8729" gradientUnits="userSpaceOnUse">
<stop stop-color="#ADACFF"/>
<stop offset="0.505208" stop-color="#6F6EFF"/>
<stop offset="0.989583" stop-color="#603ABB"/>
</linearGradient>
</defs>
</svg>
